<?xml version="1.0" standalone="no"?>
<!DOCTYPE svg PUBLIC "-//W3C//DTD SVG 20010904//EN"
 "http://www.w3.org/TR/2001/REC-SVG-20010904/DTD/svg10.dtd">
<svg version="1.0" xmlns="http://www.w3.org/2000/svg"
 width="30.000000pt" height="30.000000pt" viewBox="0 0 30.000000 30.000000"
 preserveAspectRatio="xMidYMid meet">
<metadata>
Created by potrace 1.11, written by Peter Selinger 2001-2013
</metadata>
<g transform="translate(0.000000,30.000000) scale(0.100000,-0.100000)"
fill="#000000" stroke="none">
<path d="M37 263 c-4 -3 3 -17 15 -30 l22 -24 -22 -6 c-19 -4 -22 -12 -22 -53
0 -41 3 -49 22 -53 l22 -6 -22 -24 c-28 -30 -16 -44 14 -16 l23 21 29 -21 c43
-30 52 -27 52 20 0 34 2 39 14 30 8 -7 12 -22 10 -34 -4 -18 -3 -19 4 -4 7 17
9 16 31 -7 27 -29 51 -24 25 5 -24 27 -24 151 0 178 26 29 2 34 -25 5 -22 -23
-24 -24 -31 -7 -7 15 -8 14 -4 -4 2 -12 -2 -27 -10 -34 -12 -9 -14 -4 -14 30
0 47 -9 50 -52 20 l-29 -21 -23 21 c-12 12 -26 18 -29 14z m193 -113 c0 -27
-4 -50 -10 -50 -5 0 -10 23 -10 50 0 28 5 50 10 50 6 0 10 -22 10 -50z m-30
-2 c0 -30 -1 -31 -17 -16 -13 14 -14 20 -3 32 18 22 20 20 20 -16z"/>
<path d="M255 150 c0 -55 1 -59 9 -32 5 19 5 45 0 64 -8 27 -9 23 -9 -32z"/>
</g>
</svg>
