<?xml version="1.0" standalone="no"?>
<!DOCTYPE svg PUBLIC "-//W3C//DTD SVG 20010904//EN"
 "http://www.w3.org/TR/2001/REC-SVG-20010904/DTD/svg10.dtd">
<svg version="1.0" xmlns="http://www.w3.org/2000/svg"
 width="30.000000pt" height="30.000000pt" viewBox="0 0 30.000000 30.000000"
 preserveAspectRatio="xMidYMid meet">
<metadata>
Created by potrace 1.11, written by Peter Selinger 2001-2013
</metadata>
<g transform="translate(0.000000,30.000000) scale(0.100000,-0.100000)"
fill="#000000" stroke="none">
<path d="M100 235 c-25 -19 -51 -35 -57 -35 -17 0 -18 -100 -2 -100 6 0 33
-16 59 -35 26 -19 53 -35 59 -35 7 0 11 38 11 120 0 89 -3 120 -12 120 -7 0
-33 -16 -58 -35z"/>
<path d="M195 150 c0 -55 3 -92 7 -82 4 9 7 46 7 82 0 36 -3 73 -7 82 -4 10
-7 -27 -7 -82z"/>
<path d="M225 150 c0 -44 3 -72 7 -62 4 9 7 37 7 62 0 25 -3 53 -7 62 -4 10
-7 -18 -7 -62z"/>
<path d="M255 150 c0 -55 1 -59 9 -32 5 19 5 45 0 64 -8 27 -9 23 -9 -32z"/>
</g>
</svg>
